<?xml version="1.0" encoding="utf-8"?>
<!-- Generator: Adobe Illustrator 27.5.0, SVG Export Plug-In . SVG Version: 6.00 Build 0)  -->
<svg version="1.1" id="Layer_1" xmlns="http://www.w3.org/2000/svg" xmlns:xlink="http://www.w3.org/1999/xlink" x="0px" y="0px"
	 viewBox="0 0 298.039 319.847" style="enable-background:new 0 0 298.039 319.847;" xml:space="preserve">
<g>
	<g>
		<path style="fill:#6C1105;" d="M291.797,173.897c-2.497-14.537-8.096-28.499-16.756-40.472
			c-8.511-11.768-19.691-21.387-32.449-28.301c-15.66-8.487-33.697-13.139-51.472-13.696c-10.155-0.318-20.095,1.056-30.067,2.835
			c-3.082,0.549-6.162,1.145-9.253,1.667c-3.057-0.696-6.099-1.466-9.145-2.189c-9.854-2.339-19.701-4.274-29.858-4.531
			c-17.778-0.45-36.049,3.174-52.165,10.761c-13.129,6.181-24.835,15.152-33.999,26.42c-9.322,11.463-15.703,25.087-19.018,39.459
			c-3.326,14.418-4.018,29.434-2.06,44.099c1.904,14.253,6.354,28.162,13.157,40.833c6.767,12.606,15.892,23.93,26.842,33.146
			c11.879,9.997,25.652,17.044,40.394,21.77c17.583,5.636,36.039,8.527,54.486,8.937c1.722,0.038,3.446,0.048,5.17,0.044
			c1.722,0.102,3.443,0.189,5.165,0.249c18.441,0.634,37.03-1.208,54.905-5.84c14.986-3.883,29.135-10.14,41.561-19.449
			c11.454-8.581,21.206-19.372,28.675-31.574c7.51-12.267,12.739-25.901,15.446-40.023
			C294.144,203.511,294.302,188.48,291.797,173.897z"/>
		<path style="fill:#E4281E;" d="M286.842,228.352c-3.937,13.496-10.25,26.277-18.693,37.526
			c-8.536,11.372-19.199,21.082-31.372,28.437c-13.806,8.341-29.242,13.125-45.042,15.998c-6.055,1.101-12.164,1.892-18.297,2.398
			c1.348-0.19,2.691-0.411,4.034-0.629c-2.44,0.201-4.877,0.372-7.295,0.554c-8.522,0.64-41.827,0.353-49.897-0.838
			c-7.089-1.047-14.179-2.214-21.11-4.062c-1.677-0.447-3.351-0.937-5.007-1.477c-13.607-3.729-26.723-9.061-38.426-17.069
			c-11.739-8.032-21.835-18.33-29.713-30.167c-7.793-11.709-13.372-24.827-16.54-38.524c-3.26-14.099-3.948-28.742-2.095-43.091
			c1.88-14.558,6.371-28.725,14.183-41.212c7.525-12.029,17.826-22.148,29.905-29.58c14.056-8.648,30.332-13.536,46.692-15.236
			c9.733-1.011,19.581-0.705,29.249,0.786c6.993,1.077,13.85,2.846,20.764,4.32c-0.063,0.009-0.127,0.018-0.191,0.026
			c0.487,0.068,0.974,0.134,1.464,0.183c2.485,0.249,4.999-0.044,7.469-0.34c0.866-0.104,1.73-0.217,2.595-0.333
			c5.6-0.931,11.19-1.924,16.842-2.471c9.737-0.94,19.587-0.689,29.247,0.871c16.238,2.622,32.211,8.424,45.755,17.854
			c11.639,8.103,21.351,18.789,28.183,31.225c7.092,12.909,10.775,27.307,11.828,41.948
			C292.409,199.879,290.894,214.461,286.842,228.352z"/>
		<path style="opacity:0.69;fill:#93181C;" d="M291.371,185.449c-1.053-14.641-4.735-29.039-11.828-41.948
			c-6.833-12.436-16.544-23.122-28.183-31.225c-13.544-9.43-29.516-15.231-45.755-17.854c-9.66-1.56-19.51-1.811-29.247-0.871
			c-5.652,0.547-11.242,1.54-16.842,2.471c-0.864,0.115-1.729,0.229-2.595,0.333c-2.469,0.296-4.984,0.59-7.469,0.34
			c-0.49-0.049-0.977-0.115-1.464-0.183c0.064-0.009,0.128-0.017,0.191-0.026c-6.914-1.473-13.772-3.242-20.764-4.32
			c-9.668-1.491-19.516-1.797-29.249-0.786c-16.36,1.7-32.636,6.588-46.692,15.236c-12.078,7.432-22.379,17.551-29.905,29.58
			c-7.812,12.487-12.303,26.654-14.183,41.212c-1.853,14.349-1.165,28.992,2.095,43.091c3.167,13.697,8.747,26.815,16.54,38.524
			c7.878,11.836,17.975,22.135,29.713,30.167c11.703,8.007,24.819,13.34,38.426,17.069c1.657,0.54,3.33,1.03,5.007,1.477
			c6.931,1.848,14.022,3.015,21.11,4.062c8.07,1.191,41.375,1.478,49.897,0.838c2.418-0.181,4.855-0.353,7.295-0.554
			c-1.343,0.218-2.686,0.439-4.034,0.629c6.133-0.506,12.242-1.296,18.297-2.398c15.8-2.873,31.237-7.657,45.042-15.998
			c12.174-7.355,22.837-17.065,31.372-28.437c8.443-11.249,14.756-24.03,18.693-37.526
			C290.894,214.461,292.409,199.879,291.371,185.449z M203.962,200.158c-0.993,10.353-3.402,20.587-7.066,30.318
			c-3.408,9.052-7.906,17.8-13.802,25.492c-6.086,7.941-13.838,14.467-22.653,19.197c-9.145,4.907-19.269,7.859-29.556,9.079
			c-10.543,1.25-21.245,0.746-31.668-1.225c-10.582-2.001-20.879-5.535-30.449-10.475c-9.295-4.798-17.931-10.976-25.229-18.488
			c-3.578-3.681-6.823-7.69-9.642-11.981c-2.965-4.515-5.347-9.338-7.354-14.349c-4.433-11.069-7.114-22.82-7.79-34.73
			c-0.657-11.57,0.607-23.286,4.005-34.377c2.591-8.459,6.446-16.51,11.47-23.775c5.574-8.876,12.845-16.711,21.263-22.915
			c5.421-3.995,11.282-7.453,17.587-9.853c5.936-2.259,12.447-3.571,18.786-2.533c2.868,0.47,5.483,1.471,7.947,3.011
			c2.242,1.402,4.25,3.153,6.09,5.044c3.648,3.748,6.705,8.045,10.591,11.566c2.073,1.879,4.386,3.497,6.922,4.69
			c3.203,1.508,6.651,2.182,10.141,2.639c8.028,1.053,16.153,0.767,24.196,1.645c7.205,0.787,14.115,2.697,20.284,6.578
			c4.158,2.616,7.95,5.821,11.202,9.505c6.43,7.284,10.626,16.272,12.905,25.672C204.537,179.76,204.929,190.073,203.962,200.158z"
			/>
		<path style="opacity:0.69;fill:#93181C;" d="M291.371,185.449c-1.053-14.641-4.735-29.039-11.828-41.948
			c-6.833-12.436-16.544-23.122-28.183-31.225c-13.544-9.43-29.516-15.231-45.755-17.854c-9.66-1.56-19.51-1.811-29.247-0.871
			c-5.652,0.547-11.242,1.54-16.842,2.471c-0.864,0.115-1.729,0.229-2.595,0.333c-2.469,0.296-4.984,0.59-7.469,0.34
			c-0.49-0.049-0.977-0.115-1.464-0.183c0.064-0.009,0.128-0.017,0.191-0.026c-6.914-1.473-13.772-3.242-20.764-4.32
			c-1.78-0.274-3.567-0.494-5.357-0.688c-2.548,1.872-4.773,4.367-4.753,7.638c0.022,3.637,2.781,6.724,5.425,8.904
			c3.43,2.828,7.469,4.734,11.638,6.198c9.149,3.214,18.712,5.008,28.297,6.33c18.641,2.569,37.926,3.46,55.513,10.773
			c8.642,3.593,16.685,8.67,23.336,15.282c5.805,5.771,10.62,12.513,14.399,19.765c7.741,14.849,11.27,31.823,10.887,48.52
			c-0.385,16.765-4.787,33.686-13.881,47.878c-9.302,14.516-23.181,25.493-38.712,32.733c-18.135,8.453-38.16,11.389-57.834,13.944
			c-10.011,1.299-20.069,2.254-30.147,2.876c12.585,0.739,36.855,0.85,43.951,0.317c2.418-0.181,4.855-0.353,7.295-0.554
			c-1.343,0.218-2.686,0.439-4.034,0.629c6.133-0.506,12.242-1.296,18.297-2.398c15.8-2.873,31.237-7.657,45.042-15.998
			c12.174-7.355,22.837-17.065,31.372-28.437c8.443-11.249,14.756-24.03,18.693-37.526
			C290.894,214.461,292.409,199.879,291.371,185.449z"/>
		<path style="opacity:0.48;fill:#DC9B8B;" d="M85.907,118.42c-1.606-3.205-4.27-5.818-7.665-7.056
			c-3.217-1.172-6.7-0.898-9.904,0.163c-4.207,1.394-8.024,3.995-11.356,7.083c-2.881,2.213-5.446,4.888-7.642,7.552
			c-3.96,4.806-7.472,10.184-9.387,16.149c-2.735,8.518-4.366,22.595,5.288,27.533c5.29,2.706,12.026,1.752,17.264-0.586
			c6.208-2.771,11.297-7.63,15.282-13.058c4.051-5.516,7.149-11.861,8.901-18.482C88.366,131.383,88.933,124.46,85.907,118.42z"/>
		<path style="fill:#FFFFFF;" d="M69.436,124.301c-0.611-1.221-1.625-2.215-2.919-2.687c-1.225-0.447-2.552-0.342-3.772,0.062
			c-1.603,0.531-3.056,1.522-4.325,2.697c-1.097,0.843-2.074,1.862-2.91,2.877c-1.508,1.83-2.846,3.879-3.575,6.15
			c-1.042,3.243-1.663,8.605,2.014,10.485c2.015,1.031,4.579,0.667,6.575-0.223c2.364-1.055,4.302-2.906,5.819-4.973
			c1.543-2.1,2.723-4.517,3.39-7.039C70.373,129.238,70.589,126.601,69.436,124.301z"/>
		<path style="opacity:0.48;fill:#DC9B8B;" d="M41.156,185.068c-2.083-6.309-8.293-8.98-13.823-4.771
			c-1.934,1.472-3.179,3.688-3.994,5.977c-2.474,6.95-1.081,14.718,2.631,20.973c1.355,2.285,3.422,4.771,6.29,4.913
			c3.246,0.16,5.848-2.471,7.222-5.145c1.795-3.494,2.442-7.587,2.647-11.473C42.31,192.109,42.245,188.368,41.156,185.068z"/>
		<path style="fill:#FFFFFF;" d="M47.708,150.064c-0.497-1.506-1.979-2.144-3.299-1.139c-0.462,0.351-0.759,0.88-0.954,1.426
			c-0.591,1.659-0.258,3.513,0.628,5.006c0.323,0.545,0.816,1.139,1.501,1.173c0.774,0.039,1.396-0.589,1.723-1.228
			c0.428-0.834,0.583-1.811,0.632-2.738C47.984,151.744,47.968,150.852,47.708,150.064z"/>
		<g>
			<path style="fill:#266922;" d="M259.984,184.12c-2.901-2.134-3.091-6.703-3.139-9.975c-0.052-3.544,0.379-7.057,0.708-10.579
				c1.065-11.403,3.409-23.325,0.123-34.579c-2.721-9.319-9.644-17.044-17.879-21.965c-4.167-2.489-8.713-4.281-13.482-5.202
				c-5.998-1.159-12.116-1.078-18.166-0.394c-5.539,0.626-11.031,2.012-16.596,2.404c0.035-0.01,0.073-0.019,0.109-0.029
				c3.025-0.851,5.916-2.075,8.795-3.32c6.341-2.742,12.779-5.914,17.293-11.318c11.251-13.468,4.451-32.586,0.528-47.499
				c-1.256-4.774-2.509-9.687-2.524-14.654c-0.015-4.956,2.04-9.063,4.228-13.375c0.401-0.79-0.832-0.736-1.193-0.386
				c-2.942,2.849-5.179,6.318-6.36,10.253c-1.1,3.661-1.322,7.5-1.114,11.3c0.433,7.909,2.707,15.577,3.259,23.467
				c0.482,6.876-0.445,14.401-4.441,20.2c-4.988,7.238-13.731,9.02-22.031,8.259c-5.118-0.47-10.379-1.861-15.532-1.275
				c-0.848,0.097-1.659,0.27-2.442,0.499c-1.258-4.623-2.388-9.292-3.512-13.948c-1.208-5.011-2.291-10.057-2.997-15.166
				c-0.722-5.216-1.208-10.603-0.228-15.818c0.495-2.637,1.323-5.018,3.192-6.992c1.21-1.279,2.512-2.405,3.654-3.722
				c1.146-0.55,1.597-1.896,1.621-3.156c0.039-2.031-0.572-4.077-1.217-5.98c-0.629-1.853-1.378-3.675-2.235-5.435
				c-0.748-1.537-1.678-2.994-2.669-4.384c-0.701-0.983-2.04-3.133-3.517-3.172c-0.045-0.045-0.106-0.082-0.21-0.097
				c-0.029-0.003-0.056-0.002-0.084-0.006c-0.116-0.032-0.231-0.039-0.342-0.026c-4.366-0.326-7.33,3.987-8.976,7.502
				c-2.26,4.83-3.362,10.272-3.306,15.588c0.083,7.906,2.238,15.606,3.643,23.339c1.466,8.069,3.001,16.155,3.401,24.364
				c0.183,3.753,0.196,7.624-0.79,11.278c-0.023,0.001-0.038-0.004-0.064-0.001c-2.923,0.379-5.752,0.99-8.72,0.64
				c-1.424-0.168-2.923-0.581-4.101-1.425c-1.269-0.91-2.007-2.252-2.356-3.754c-0.013-0.054-0.043-0.085-0.079-0.108
				c-0.566-2.338-0.964-4.724-1.35-7.083c-0.852-5.212-1.484-10.43-1.963-15.69c-0.927-10.188-1.455-20.635-5.097-30.299
				c-1.634-4.337-3.731-8.507-6.335-12.344c-2.184-3.217-4.737-6.538-7.835-8.933c-2.895-2.239-6.307-4.004-9.761-5.195
				c-2.971-1.023-6.723-1.888-9.573-0.085c-0.29,0.184-0.477,0.578-0.193,0.845c2.454,2.321,5.909,3.214,8.575,5.266
				c2.878,2.216,5.1,5.077,6.937,8.187c4.03,6.821,5.468,14.595,5.868,22.418c0.38,7.424,0.06,14.867,0.524,22.289
				c0.406,6.499,1.478,13.125,4.534,18.935c-0.312-0.321-0.625-0.639-0.935-0.962c-9.387-9.796-18.22-20.2-30.198-26.95
				c-10.529-5.934-24.674-10.903-36.351-5.267c-11.107,5.361-15.69,17.636-15.674,29.339c0.016,12.013,4.096,23.802,11.838,32.975
				c1.525,1.252,3.105,2.434,4.713,3.582c-0.543-1.182-1.065-2.375-1.549-3.581c-0.43-0.652-0.846-1.312-1.237-1.999
				c-1.434-2.523-2.675-5.148-3.718-7.855c-2.038-5.289-3.538-10.946-3.668-16.639c-0.244-10.648,4.65-21.876,13.657-27.874
				c0.093-0.062,0.189-0.116,0.282-0.176c3.021-0.707,6.346-0.36,9.3,0.28c3.824,0.829,7.434,2.379,10.9,4.165
				c7.715,3.974,14.905,9.193,21.027,15.349c6.602,6.638,12.144,14.19,17.842,21.59c2.787,3.62,6.198,6.866,10.208,8.913
				c-1.374,1.255-2.73,2.532-4.11,3.776c-3.885,3.506-8.055,6.375-12.797,8.609c-4.716,2.223-9.649,3.934-14.542,5.716
				c-4.925,1.793-9.849,3.61-14.69,5.619c-9.517,3.953-18.82,8.89-26.417,15.957c-3.921,3.648-7.137,8.11-8.793,13.239
				c-0.744,2.302-1.268,4.754-1.469,7.166c-0.178,2.132-0.077,4.47,1.07,6.337c0.002-0.145,0.003-0.288,0.005-0.427
				c0.014-1.331-0.091-2.684,0.091-4.008c0.203-1.473,0.862-2.941,1.495-4.274c0.249-0.525,0.527-1.035,0.819-1.536
				c0.279-0.796,0.598-1.574,0.95-2.323c1.858-3.951,5.193-7.138,8.538-9.855c7.475-6.071,16.39-10.153,25.632-12.698
				c7.76-2.137,15.716-3.401,23.574-5.107c6.824-0.761,13.616-1.654,20.143-3.985c9.037-3.227,18.37-7.803,25-14.913
				c1.344-1.442,2.566-2.996,3.608-4.652c2.171,0.968,4.602,1.35,6.948,1.532c7.119,0.551,14.3,0.104,21.417-0.231
				c7.131-0.336,14.316-0.564,21.402,0.489c6.086,0.905,12.045,2.781,17.485,5.669c9.096,4.831,16.501,12.382,20.906,21.713
				c2.256,4.779,3.68,9.937,4.324,15.178c0.401,3.263,0.198,6.528,0.181,9.807c-0.02,3.87,0.052,7.818,0.85,11.619
				c0.596,2.839,1.739,6.291,4.606,7.581c0.654,0.294,1.354,0.44,2.067,0.489C259.726,185.19,260.513,184.509,259.984,184.12z"/>
			<path style="fill:#47AE38;" d="M161.317,9.533c0.026-0.119,0.048-0.214,0.071-0.297c0.074,0.023,0.161,0.031,0.28,0.005
				c0.437-0.096,1.059,0.584,1.329,0.851c0.636,0.627,1.18,1.355,1.701,2.079c0.777,1.081,1.511,2.209,2.155,3.375
				c1.487,2.69,2.659,5.695,3.394,8.676c0.331,1.338,0.832,3.246,0.204,4.573c-0.9,1.905-3.432-0.749-4.182-1.605
				c-2.618-2.99-3.828-6.871-4.494-10.728c-0.275-1.591-0.496-3.201-0.552-4.815C161.2,10.952,161.166,10.218,161.317,9.533z"/>
			<path style="fill:#47AE38;" d="M120.923,97.296c-5.462-7.169-10.924-14.403-17.31-20.789
				c-6.062-6.063-13.174-11.164-20.815-15.045c-5.436-2.761-12.411-5.523-18.686-4.384c2.027-0.915,4.188-1.428,6.486-1.426
				c1.885,0.002,3.769,0.211,5.651,0.432c-3.667-1.309-7.523-1.357-11.349-0.815c-0.567,0.211-1.128,0.443-1.677,0.72
				c-4.902,2.471-9.095,6.765-11.866,11.472c-2.785,4.731-4.449,10.171-4.912,15.636c-0.498,5.883,0.703,11.826,2.571,17.383
				c1.056,3.141,2.353,6.211,3.905,9.14c0.609,1.15,1.234,2.324,1.947,3.424c-7.214-8.228-11.41-18.629-12.121-29.674
				c-0.738-11.482,2.604-24.528,13.106-30.758c11.291-6.7,25.974-1.505,36.437,4.393c11.772,6.635,20.481,16.844,29.68,26.501
				c2.385,2.504,4.825,4.944,7.365,7.271c0.584,0.703,1.179,1.392,1.787,2.051c1.493,1.619,3.44,3.45,5.661,4.139
				c1.702,1.264,3.551,2.534,5.505,3.625c-1.642,0.766-3.221,1.668-4.712,2.695c-1.899,1.307-3.665,2.779-5.383,4.309
				C127.68,105.321,124.06,101.414,120.923,97.296z"/>
			<path style="fill:#47AE38;" d="M45.29,94.016c-2.028-6.669-2.724-13.724-1.175-20.568c1.341-5.93,4.233-11.261,8.56-15.542
				c2.25-2.226,4.748-4.182,7.589-5.597c2.727-1.357,5.665-2.235,8.646-2.829c-4.554-0.133-9.022,0.736-13.057,3.131
				C45.35,58.841,42.008,71.887,42.746,83.369c0.615,9.553,3.843,18.624,9.371,26.224C49.378,104.613,46.945,99.459,45.29,94.016z"
				/>
			<path style="fill:#47AE38;" d="M254.193,177.646c-0.979-3.787-1.079-7.784-1.075-11.675c0.002-2.997,0.257-6.036,0.007-9.027
				c-0.439-5.256-1.698-10.454-3.738-15.318c-3.889-9.277-10.688-17.176-19.226-22.486c-4.664-2.9-9.8-5.07-15.122-6.423
				c-6.921-1.759-14.089-2.025-21.196-1.83c-7.132,0.195-14.253,0.801-21.393,0.674c-3.423-0.062-6.942,0.039-10.284-0.813
				c-0.799-0.204-1.538-0.478-2.258-0.782c0.63-1.151,1.148-2.356,1.567-3.601c-0.286,0.235-0.557,0.487-0.825,0.743
				c-0.893,1.142-1.814,2.262-2.766,3.356c-0.261,0.366-0.539,0.718-0.807,1.078c-0.222,0.323-0.444,0.643-0.663,0.965
				c0.174-0.15,0.349-0.297,0.52-0.452c-0.516,0.711-1.07,1.394-1.645,2.061c-0.089,0.124-0.177,0.253-0.267,0.375
				c-0.049,0.066-0.108,0.107-0.171,0.136c-0.022,0.024-0.041,0.05-0.063,0.074c-2.95,3.25-6.486,5.895-10.254,8.124
				c-11.894,7.032-25.53,9.843-39.048,11.792c-6.49,0.935-13.146,2.273-19.469,4.079c-9.209,2.629-18.043,6.734-25.542,12.754
				c-3.614,2.901-7.109,6.258-9.188,10.457c1.377-4.382,3.907-8.26,7.127-11.52c6.997-7.082,16.074-11.996,25.145-15.876
				c9.173-3.923,18.75-6.809,27.928-10.706c4.5-1.911,8.913-4.171,12.759-7.218c2.861-2.266,5.48-4.804,8.181-7.253
				c0.032,0.013,0.064,0.023,0.096,0.036c0.363-0.359,0.715-0.729,1.089-1.077c0.011-0.011,0.023-0.021,0.021-0.036
				c0.262-0.231,0.519-0.47,0.783-0.698c0.051-0.044,0.103-0.085,0.154-0.129c2.212-1.99,4.577-3.889,7.094-5.446
				c5.158-3.192,11.86-3.96,17.776-3.06c0.065,0.01,0.129,0.027,0.194,0.037c-1.023-0.414-2.083-0.73-3.196-0.892
				c-0.093-0.013-0.163-0.055-0.223-0.105c-1.506-0.135-3.024-0.138-4.533,0.007c0.012-0.008,0.023-0.018,0.034-0.026
				c-0.104,0.016-0.206,0.043-0.31,0.058c-0.548,0.079-1.106,0.141-1.665,0.167c-0.062,0.038-0.122,0.082-0.186,0.117
				c-0.257,0.048-0.515,0.092-0.771,0.146c-1.053,0.299-2.117,0.773-3.209,0.762c0.022,0.022,0.043,0.046,0.065,0.069
				c-0.519,0.171-1.034,0.351-1.543,0.549c-1.746-0.933-3.419-2.019-4.986-3.145c-2.96-2.127-5.751-4.458-8.432-6.914
				c-1.224-1.583-2.398-3.228-3.435-4.909c-3.727-6.042-5-13.199-5.462-20.182c-0.971-14.72,1.599-30.558-5.742-44.068
				c-1.855-3.413-4.239-6.565-7.267-9.024c-1.425-1.157-2.96-2.064-4.614-2.849c-1.566-0.743-3.189-1.424-4.571-2.478
				c2.543-1.066,5.996,0.137,8.341,1.049c3.099,1.205,6.139,2.858,8.74,4.94c3.217,2.575,5.813,6.165,8.006,9.618
				c2.548,4.014,4.627,8.326,6.164,12.825c3.363,9.842,3.678,20.465,4.636,30.734c0.483,5.185,1.167,10.327,2.056,15.457
				c0.189,1.089,0.397,2.179,0.625,3.266c0.07,0.237,0.137,0.474,0.208,0.711c0.329,1.107,0.667,2.222,1.13,3.281
				c0.646,1.48,1.652,2.692,2.88,3.614c-0.062-0.127-0.13-0.25-0.188-0.38c-0.136-0.301-0.255-0.609-0.379-0.916
				c1.116,0.917,2.508,1.411,3.923,1.669c1.74,0.317,3.507,0.296,5.261,0.122c1.432-0.143,2.879-0.42,4.213-0.973
				c-0.257,0.755-0.567,1.481-0.939,2.175c0.834-0.564,1.615-1.219,2.29-1.955c0.684-1.894,1.035-3.929,1.212-5.893
				c0.679-7.524-0.508-15.305-1.736-22.711c-0.651-3.926-1.359-7.848-2.148-11.748c-0.784-3.874-1.69-7.724-2.35-11.623
				c-1.113-6.581-1.297-13.176,0.65-19.612c1.251-4.13,3.546-9.999,8.268-10.916c-0.116,0.207-0.206,0.427-0.258,0.634
				c-0.404,1.605-0.178,3.382,0.015,5.002c0.513,4.294,1.497,8.91,4.157,12.407c1.02,1.34,2.628,3.349,4.488,3.525
				c-2.435,1.922-4.787,3.923-5.937,6.944c-1.826,4.796-1.743,10.234-1.306,15.265c0.926,10.651,3.83,20.975,6.415,31.308
				c0.071,0.285,0.158,0.579,0.236,0.868c0.189,0.42,0.382,0.837,0.556,1.254c0.583,1.393,0.945,2.863,1.298,4.327
				c0.513,2.133,1.185,4.198,1.579,6.334c0.608-3.151-0.397-6.657-1.236-9.671c0.967-0.225,1.964-0.358,2.982-0.383
				c4.77-0.119,9.527,1.103,14.263,1.524c8.108,0.721,16.753-0.925,22.285-7.359c4.455-5.181,6.123-12.131,6.225-18.833
				c0.118-7.701-1.895-15.176-2.912-22.761c-0.592-4.413-0.876-8.936-0.058-13.339c0.525-2.827,1.574-5.454,3.071-7.821
				c-0.861,1.951-1.565,3.959-1.864,6.109c-0.566,4.072,0.123,8.312,0.98,12.293c1.755,8.148,4.522,16.049,5.991,24.264
				c1.435,8.024,1.748,17.015-2.456,24.318c-3.512,6.098-9.665,9.86-15.915,12.685c-3.029,1.369-6.099,2.724-9.242,3.809
				c-0.891,0.307-1.875,0.644-2.895,0.921c-1.278,0.463-2.589,0.836-3.936,1.046c-2.341,0.366-4.757,0.317-7.104,0.023
				c-2.617-0.327-5.098-1.075-7.476-2.097c0.259,0.219,0.519,0.436,0.793,0.638c3.555,1.559,7.31,2.602,11.206,2.997
				c5.698,0.579,11.166-0.457,16.762-1.388c11.491-1.914,23.412-2.539,34.174,2.659c8.769,4.235,16.566,11.683,20.02,20.913
				c4.199,11.219,1.839,23.429,0.747,34.977c-0.387,4.091-0.89,8.196-0.77,12.313c0.08,2.744,0.409,5.967,1.92,8.395
				C255.612,181.847,254.709,179.642,254.193,177.646z"/>
			<path style="opacity:0.69;fill:#266922;" d="M259.984,184.12c-2.901-2.134-3.091-6.703-3.139-9.975
				c-0.052-3.544,0.379-7.057,0.708-10.579c1.034-11.068,3.257-22.622,0.383-33.582c-0.033,1.223-0.087,2.442-0.169,3.658
				c-0.157,2.326-0.36,4.766-1.121,6.986c-0.446,1.302-1.326,2.989-2.968,2.725c-1.123-0.179-1.816-1.105-2.324-2.049
				c-0.817-1.518-1.3-3.188-1.915-4.79c-0.836-2.178-2.108-4.24-3.325-6.221c-1.281-2.083-2.68-4.041-4.304-5.871
				c-6.338-7.137-15.004-12.157-24.249-14.439c-5.134-1.267-10.464-1.731-15.741-1.837c-2.14-0.043-4.278,0.192-6.416,0.257
				c-1.956,0.059-4.023,0.055-5.883-0.628c-0.404-0.149-0.636-0.738-0.245-1.049c1.54-1.225,3.215-2.259,4.961-3.162
				c-0.893,0.108-1.786,0.203-2.682,0.266c0.035-0.01,0.073-0.019,0.109-0.029c3.025-0.851,5.916-2.075,8.795-3.32
				c6.341-2.742,12.779-5.914,17.293-11.318c11.251-13.468,4.451-32.586,0.528-47.499c-1.256-4.774-2.509-9.687-2.524-14.654
				c-0.015-4.956,2.04-9.063,4.228-13.375c0.337-0.662-0.472-0.728-0.956-0.526c-2.033,3.99-3.912,8.11-4.319,12.625
				c-0.23,2.554-0.076,5.163,0.113,7.716c0.198,2.668,0.527,5.324,0.92,7.971c1.29,8.673,3.61,17.371,3.558,26.189
				c-0.023,4.027-0.617,8.117-2.281,11.812c-1.636,3.632-4.246,6.759-7.535,9.007c-3.269,2.234-7.077,3.612-10.907,4.53
				c-3.781,0.907-7.912,1.733-11.807,1.257c-5.974-0.731-10.846-4.229-14.619-8.694c-0.695,0.102-1.372,0.241-2.023,0.432
				c-0.454-1.669-0.877-3.346-1.303-5.024c-0.005-0.007-0.011-0.015-0.015-0.023c-0.076-0.122-0.09-0.239-0.082-0.349
				c-0.721-2.848-1.424-5.701-2.112-8.553c-1.208-5.011-2.291-10.057-2.997-15.166c-0.722-5.216-1.208-10.603-0.228-15.818
				c0.495-2.637,1.323-5.018,3.192-6.992c1.21-1.279,2.512-2.405,3.654-3.722c1.146-0.55,1.597-1.896,1.621-3.156
				c0.039-2.031-0.572-4.077-1.217-5.98c-0.629-1.853-1.378-3.675-2.235-5.435c-0.748-1.537-1.678-2.994-2.669-4.384
				c-0.701-0.983-2.04-3.133-3.517-3.172c-0.045-0.045-0.106-0.082-0.21-0.097c-0.029-0.003-0.056-0.002-0.084-0.006
				c-0.116-0.032-0.231-0.039-0.342-0.026c-0.416-0.031-0.815-0.008-1.206,0.041c-0.299,0.837-0.538,1.686-0.728,2.488
				c-0.302,1.278-0.566,2.622-0.604,3.939c-0.052,1.81,0.522,3.586,1.062,5.291c0.446,1.406,0.9,2.817,1.046,4.291
				c0.154,1.562-0.478,2.762-1.222,4.085c-1.719,3.063-2.326,6.806-2.614,10.261c-0.618,7.419,0.535,14.869,1.877,22.148
				c0.662,3.587,1.391,7.16,2.047,10.749c0.567,3.106,1.187,6.233,1.507,9.378c0.244,2.41,0.234,4.874-0.479,7.21
				c-0.798,2.617-2.429,4.833-4.358,6.735c-0.267,0.263-0.814,0.214-0.975-0.153c-0.595-1.36-0.696-2.86-0.769-4.325
				c-0.039-0.785-0.074-1.56-0.134-2.333c-0.125,0.762-0.276,1.52-0.478,2.267c-0.023,0.001-0.038-0.004-0.064-0.001
				c-2.923,0.38-5.752,0.99-8.72,0.64c-1.424-0.168-2.923-0.581-4.101-1.425c-1.269-0.91-2.007-2.252-2.356-3.754
				c-0.013-0.054-0.043-0.085-0.079-0.108c-0.566-2.338-0.964-4.724-1.35-7.083c-0.852-5.212-1.484-10.43-1.963-15.69
				c-0.927-10.188-1.455-20.635-5.097-30.299c-1.634-4.337-3.731-8.507-6.335-12.344c-2.184-3.217-4.737-6.538-7.835-8.933
				c-2.895-2.239-6.307-4.004-9.761-5.195c-2.417-0.833-5.35-1.559-7.895-0.831c1.651,0.273,3.272,0.82,4.792,1.499
				c3.213,1.437,6.13,3.427,8.962,5.498c11.441,8.37,15.397,23.029,16.977,36.417c0.954,8.075,1.036,16.221,1.919,24.298
				c0.804,7.359,3.72,14.087,6.741,20.763c0.201,0.444-0.182,1.124-0.729,0.895c-2.958-1.236-5.635-2.994-8.017-5.135
				c-3.291-2.96-5.974-6.563-8.14-10.433c0.562,1.674,1.234,3.31,2.062,4.884c-0.312-0.321-0.625-0.639-0.935-0.962
				c-9.387-9.796-18.22-20.2-30.198-26.95c-1.259-0.71-2.571-1.405-3.924-2.071c2.679,2.219,4.987,4.861,6.7,8.033
				c0.364,0.673-0.487,1.147-1,0.727c-0.772-0.632-1.571-1.233-2.391-1.802c-6.408-4.454-14.282-7.188-22.136-6.863
				c-7.847,0.325-14.934,4.138-19.401,10.612c-4.014,5.819-5.784,12.912-5.948,19.917c-0.171,7.304,1.327,14.688,4.258,21.377
				c1.143,2.608,2.529,5.134,4.141,7.501c1.376,1.108,2.787,2.172,4.227,3.2c-0.543-1.182-1.065-2.375-1.549-3.581
				c-0.43-0.652-0.846-1.312-1.237-1.999c-1.434-2.523-2.675-5.148-3.718-7.855c-2.038-5.289-3.538-10.946-3.668-16.639
				c-0.244-10.648,4.65-21.876,13.657-27.874c0.093-0.062,0.189-0.116,0.283-0.176c3.021-0.707,6.345-0.36,9.299,0.28
				c3.824,0.829,7.434,2.379,10.9,4.165c7.715,3.974,14.905,9.193,21.027,15.349c6.602,6.638,12.144,14.19,17.842,21.59
				c2.787,3.62,6.198,6.866,10.208,8.913c-1.374,1.255-2.73,2.532-4.109,3.776c-1.201,1.084-2.434,2.099-3.697,3.061
				c4.469-2.094,8.395-5.232,12.483-7.958c1.909-1.273,3.882-2.536,5.933-3.57c1.821-0.919,4.031-1.925,6.125-1.727
				c1.898,0.181,3.423,1.757,2.527,3.663c-0.466,0.992-1.27,1.813-2.034,2.582c-0.839,0.844-1.667,1.705-2.527,2.527
				c-4.276,4.081-9.378,7.217-14.626,9.885c-11.517,5.853-23.773,9.809-36.078,13.622c-6.564,2.034-13.131,4.098-19.514,6.657
				c-5.257,2.107-10.529,4.535-15.065,7.969c-4.108,3.11-7.39,7.017-9.072,11.925c-0.814,2.376-1.384,4.862-1.561,7.371
				c-0.013,0.183-0.021,0.369-0.03,0.555c0.298-0.908,0.691-1.797,1.087-2.631c0.249-0.525,0.527-1.035,0.819-1.536
				c0.279-0.796,0.598-1.574,0.95-2.323c1.858-3.951,5.193-7.138,8.538-9.855c7.475-6.071,16.39-10.153,25.632-12.698
				c7.76-2.137,15.716-3.401,23.574-5.107c6.824-0.761,13.616-1.654,20.143-3.985c9.037-3.227,18.37-7.803,25-14.913
				c1.344-1.442,2.566-2.996,3.608-4.652c2.171,0.968,4.602,1.35,6.948,1.532c7.119,0.551,14.3,0.104,21.417-0.231
				c7.131-0.336,14.316-0.564,21.402,0.489c6.086,0.905,12.045,2.781,17.485,5.669c9.096,4.831,16.501,12.382,20.906,21.713
				c2.256,4.779,3.68,9.937,4.324,15.178c0.401,3.263,0.198,6.528,0.181,9.807c-0.02,3.87,0.052,7.818,0.85,11.619
				c0.596,2.839,1.739,6.291,4.606,7.581c0.654,0.294,1.354,0.44,2.067,0.489C259.726,185.19,260.513,184.509,259.984,184.12z"/>
			<path style="opacity:0.69;fill:#266922;" d="M259.984,184.12c-2.901-2.134-3.091-6.703-3.139-9.975
				c-0.052-3.544,0.379-7.057,0.708-10.579c0.011-0.115,0.023-0.23,0.034-0.345c-0.309,0.467-0.65,0.911-1.064,1.295
				c-0.352,0.326-0.907,0.147-1.034-0.304c-1.525-5.453-2.082-11.09-3.039-16.654c-0.444-2.582-0.996-5.167-1.759-7.682
				c-0.456-1.105-0.826-2.25-1.253-3.363c-0.836-2.178-2.108-4.24-3.325-6.221c-0.185-0.3-0.378-0.592-0.568-0.886
				c-1.807-2.451-3.931-4.674-6.221-6.676c-1.715-1.5-3.518-2.894-5.474-4.065c-1.971-1.182-4.044-2.181-6.129-3.142
				c-2.848-1.314-5.737-2.579-8.468-4.118c-2.88-0.746-5.822-1.268-8.783-1.631c-2.635-0.324-5.281-0.54-7.929-0.726
				c-1.838-0.13-3.67-0.288-5.514-0.228c-3.337,0.108-6.661,0.48-9.994,0.654c-3.505,0.182-7.081,0.243-10.541-0.439
				c-2.745-0.541-5.531-1.701-7.041-4.185c-0.242-0.398,0.103-0.952,0.564-0.922c2.825,0.185,5.645,0.465,8.472,0.632
				c2.838,0.167,5.808,0.34,8.626-0.114c4.89-0.788,9.301-3.236,14.114-4.321c0.02-0.004,0.036,0.002,0.055-0.001
				c6.071-2.662,12.15-5.788,16.469-10.958c7.133-8.539,7.007-19.35,4.962-29.919c0.111,5.447-0.313,10.937-1.958,16.134
				c-2.161,6.823-6.551,12.502-12.586,16.349c-7.305,4.655-16.36,6.646-24.922,7.101c-3.211,0.171-7.602,0.406-9.74-2.508
				c-1.319-1.799-1.613-4.265-1.93-6.412c-0.205-1.388-0.395-2.779-0.682-4.147c-0.259,0.059-0.517,0.118-0.767,0.192
				c-0.454-1.669-0.877-3.346-1.303-5.024c-0.005-0.007-0.011-0.015-0.015-0.023c-0.076-0.122-0.09-0.239-0.082-0.349
				c-0.721-2.848-1.424-5.701-2.112-8.553c-1.208-5.011-2.291-10.057-2.997-15.166c-0.722-5.216-1.208-10.603-0.228-15.818
				c0.495-2.637,1.323-5.018,3.192-6.992c1.21-1.279,2.512-2.405,3.654-3.722c1.146-0.55,1.597-1.896,1.621-3.156
				c0.021-1.086-0.147-2.177-0.404-3.248c-0.22,0.267-0.462,0.512-0.759,0.695c-1.952,1.206-4.236-0.858-5.446-2.23
				c-2.2-2.495-3.226-5.845-3.671-9.085c-0.112-0.817-0.191-1.638-0.241-2.462c-0.089,6.462,1.515,12.918,4.924,18.524
				c0.133,0.219,0.088,0.591-0.119,0.753c-2.607,2.037-4.293,4.788-5.053,7.999c-0.805,3.398-0.608,6.942-0.317,10.39
				c0.642,7.622,2.14,15.137,3.52,22.651c0.582,3.166,1.104,6.342,1.647,9.515c0.425,2.489,0.842,5.032,0.692,7.566
				c-0.14,2.369-0.839,4.736-2.562,6.445c-1.4,1.389-3.771,2.739-5.806,2.084c-1.738-0.559-2.601-2.374-3.013-4.02
				c-0.206-0.822-0.312-1.671-0.37-2.524c-0.142,0.02-0.284,0.038-0.425,0.058c-0.014,1.685,0.063,3.365,0.395,5.029
				c0.064,0.32-0.117,0.684-0.456,0.754c-3.444,0.707-6.858,1.966-10.416,1.907c-3.037-0.05-5.515-1.462-7.978-3.104
				c-2.432-1.622-4.709-3.483-6.822-5.503c-2.497-2.389-4.784-5.023-6.799-7.845c-2.396-2.523-4.771-5.068-7.178-7.574
				c4.375,8.777,10.336,16.671,17.197,23.657c0.482,0.49-0.072,1.119-0.636,1.024c-2.891-0.489-5.489-2.071-7.761-3.859
				c-2.352-1.852-4.457-3.988-6.478-6.188c-4.134-4.499-8.108-9.126-12.506-13.377c-4.445-4.296-9.256-8.374-14.389-11.828
				c-4.575-3.079-9.53-5.416-15.026-6.189c-3.526-0.497-7.501-0.511-10.89,0.842c2.135-0.073,4.31,0.217,6.314,0.652
				c3.824,0.829,7.434,2.379,10.9,4.165c7.715,3.974,14.905,9.193,21.027,15.349c6.602,6.638,12.144,14.19,17.842,21.59
				c2.787,3.62,6.198,6.866,10.208,8.913c-1.374,1.255-2.73,2.532-4.109,3.776c-1.201,1.084-2.434,2.099-3.697,3.061
				c1.94-0.909,3.774-2.02,5.568-3.202c4.435-5.111,9.842-9.629,16.479-11.354c2.597-0.675,5.854-1.214,8.387-0.013
				c1.861,0.882,2.622,2.748,2.342,4.732c-0.425,3.019-2.385,5.761-4.293,8.035c-2.403,2.862-5.329,5.249-8.414,7.339
				c-6.521,4.418-13.913,7.602-21.276,10.324c-3.235,1.196-6.509,2.278-9.808,3.281c6.208-0.723,12.374-1.652,18.32-3.775
				c9.037-3.227,18.37-7.803,25-14.913c1.344-1.442,2.566-2.996,3.608-4.652c2.171,0.968,4.602,1.35,6.948,1.532
				c7.119,0.551,14.3,0.104,21.417-0.231c7.131-0.336,14.316-0.564,21.402,0.489c6.086,0.905,12.045,2.781,17.485,5.669
				c9.096,4.831,16.501,12.382,20.906,21.713c2.256,4.779,3.68,9.937,4.324,15.178c0.401,3.263,0.198,6.528,0.181,9.807
				c-0.02,3.87,0.052,7.818,0.85,11.619c0.596,2.839,1.739,6.291,4.606,7.581c0.654,0.294,1.354,0.44,2.067,0.489
				C259.726,185.19,260.513,184.509,259.984,184.12z"/>
			<path style="fill:#47AE38;" d="M127.245,84.845c0.042,0.067,0.087,0.134,0.129,0.202c-0.66-1.47-1.206-3.008-1.634-4.6
				c-3.236-12.029-0.915-24.625-2.233-36.856c-0.426-3.951-1.288-7.892-2.435-11.694c-1.265-4.192-2.95-8.393-5.397-12.043
				c-0.091-0.136-0.189-0.264-0.282-0.397c0.222,0.376,0.439,0.756,0.648,1.139c7.341,13.509,4.771,29.348,5.742,44.068
				C122.245,71.646,123.519,78.803,127.245,84.845z"/>
			<path style="fill:#47AE38;" d="M151.966,29.353c0.401-3.089,0.965-6.181,1.923-9.15c0.894-2.768,2.158-5.597,4.332-7.601
				c0.263-0.243,0.629-0.203,0.881,0.026c0.413,0.375,0.734,0.807,1.023,1.259c-0.16-1.414-0.273-2.905,0.071-4.273
				c0.052-0.207,0.142-0.427,0.258-0.634c-4.722,0.917-7.017,6.786-8.268,10.916c-1.801,5.952-1.777,12.039-0.883,18.127
				C151.386,35.124,151.593,32.231,151.966,29.353z"/>
			<path style="fill:#47AE38;" d="M189.105,89.362c5.174,0.769,10.313,0.438,15.286-1.206c3.737-1.235,7.524-3.283,9.188-7.058
				c1.26-2.862,1.444-6.255,1.28-9.425c-0.98,3.386-2.541,6.578-4.869,9.285c-5.533,6.434-14.177,8.08-22.285,7.359
				c-2.26-0.201-4.524-0.583-6.793-0.916C183.594,88.253,186.321,88.948,189.105,89.362z"/>
			<path style="fill:#47AE38;" d="M216.026,102.435c2.241,0.568,4.455,1.241,6.629,2.028c9.482,3.43,18.356,8.923,25.126,16.451
				c4.385,4.874,7.708,10.532,9.77,16.651c-0.297-3.448-0.955-6.852-2.196-10.169c-3.453-9.23-11.25-16.678-20.02-20.913
				C229.18,103.51,222.644,102.447,216.026,102.435z"/>
			<path style="fill:#47AE38;" d="M60.014,148.843c1.576-1.438,3.229-2.797,4.96-4.09C63.246,146.027,61.585,147.386,60.014,148.843
				z"/>
			<path style="fill:#47AE38;" d="M125.006,118.881c3.124-2.111,5.702-4.774,7.935-7.798c1.365-1.85,2.748-3.973,4.307-5.924
				c-0.913,0.736-1.809,1.493-2.675,2.271c-0.051,0.044-0.103,0.085-0.154,0.129c-0.265,0.228-0.521,0.466-0.783,0.697
				c0.001,0.015-0.011,0.025-0.022,0.036c-0.374,0.348-0.726,0.718-1.089,1.077c-0.032-0.013-0.065-0.023-0.096-0.036
				c-2.7,2.448-5.32,4.986-8.181,7.253c-3.846,3.046-8.259,5.307-12.759,7.218c-7.869,3.341-16.03,5.943-23.98,9.089
				c0.548-0.197,1.093-0.402,1.646-0.59c8.5-2.896,17.233-5.061,25.619-8.304C118.332,122.622,121.835,121.023,125.006,118.881z"/>
		</g>
	</g>
	<g>
		<path style="opacity:0.69;fill:#93181C;" d="M107.28,145.001c0.189-0.099,0.201-0.421,0-0.516
			c-4.469-2.124-9.898-2.837-14.077-0.03c2.163-3.069,5.419-5.175,9.035-6.255c3.673-1.097,7.654-1.216,11.399-0.418
			c2.412,0.514,4.67,1.513,6.88,2.584c1.186,0.574,2.363,1.168,3.537,1.768c0.97,0.495,1.841,1.159,2.696,1.828
			c1.617,1.266,3.24,2.739,5.201,3.448c1.178,0.426,2.683,0.546,3.53-0.552c0.767-0.994,0.818-2.433,0.877-3.634
			c0.05-1.009,0.023-2.061,0.173-3.073c0.568,1.911,0.922,3.905,1.06,5.882c0.153,2.201,0.195,5.036-1.316,6.829
			c-0.121,0.143-0.119,0.368,0.06,0.469c1.831,1.036,3.284,2.599,4.028,4.582c0.121,0.323,0.554,0.259,0.587-0.079
			c0.197-2.047,0.713-4.117,1.943-5.8c0.125-0.17-0.017-0.377-0.178-0.439c-1.947-0.749-2.965-2.83-3.427-4.741
			c-0.404-1.673-0.513-3.611,0.007-5.297c0.383,0.867,0.705,1.76,1.061,2.638c0.361,0.889,0.744,1.831,1.398,2.55
			c1.659,1.823,3.805-0.099,5.081-1.386c3.91-3.943,5.511-9.527,8.644-14.021c3.026-4.341,7.277-8.151,12.522-9.443
			c2.393-0.59,4.822-0.615,7.185,0.108c2.351,0.719,4.533,1.985,6.462,3.495c1.968,1.54,3.736,3.375,5.139,5.446
			c0.953,1.408,1.774,2.962,2.232,4.612c-0.103-0.066-0.207-0.131-0.311-0.193c-2.179-1.305-4.743-2.027-7.214-2.532
			c-2.048-0.419-4.321-0.829-6.409-0.477c-0.234,0.039-0.271,0.35-0.132,0.499c1.182,1.269,2.624,2.252,4.052,3.22
			c1.486,1.008,2.897,2.041,4.222,3.254c4.935,4.52,8.577,10.496,11.082,16.664c2.442,6.014,3.594,12.393,4.567,18.78
			c0.028,0.185,0.293,0.279,0.439,0.179c1.952-1.342,2.857-3.53,3.467-5.751c0.273,5.002-0.552,10.059-2.694,14.612
			c-2.07,4.4-5.303,8.198-9.345,10.906c-4.017,2.69-8.64,4.21-13.42,4.778c-4.948,0.588-10.049,0.381-14.917-0.69
			c-4.603-1.012-9.261-2.858-12.617-6.274c-0.176-0.178-0.524-0.051-0.51,0.211c0.151,2.855-0.07,5.871-1.283,8.501
			c-1.019,2.209-2.769,3.95-5.097,4.732c-2.509,0.843-5.632,0.873-7.952-0.521c-2.063-1.239-3.301-3.433-4.18-5.603
			c-0.924-2.278-1.526-4.668-2.322-6.99c-0.077-0.224-0.323-0.28-0.5-0.132c-0.557,0.466-1.13,0.912-1.722,1.333
			c-4.515,3.212-10.105,5.192-15.688,4.801c-2.734-0.191-5.417-0.993-7.768-2.408c-2.577-1.551-4.656-3.797-6.284-6.308
			c-3.43-5.287-4.797-11.713-4.816-17.952c-0.018-5.754,1.051-11.716,3.964-16.745C98.327,150.792,102.569,147.473,107.28,145.001z"
			/>
		<path style="opacity:0.69;fill:#93181C;" d="M128.736,170.676c0.546-5.441-0.058-10.941-1.663-16.162
			c0.563,0.338,1.113,0.696,1.64,1.087c1.575,1.171,3.011,2.529,4.377,3.935c0.583,0.6,1.183,1.199,1.723,1.84
			c0.454,0.538,0.832,1.14,1.204,1.736c0.789,1.262,1.512,2.618,2.533,3.714c0.705,0.756,1.815,1.466,2.892,1.404
			c1.997-0.115,2.722-2.754,3.372-4.25c0.557-1.283,1.412-3.059,2.939-3.222c1.11-0.118,2.074,0.758,2.774,1.583
			c0.484,0.571,0.901,1.199,1.287,1.848c0.811,2.165,1.48,4.384,2.139,6.598c1.448,4.861,2.851,9.777,5,14.385
			c0.291,1.226,0.579,2.452,0.846,3.683c0.082,0.376,0.658,0.216,0.576-0.159c-0.044-0.202-0.088-0.403-0.132-0.605
			c-0.046-0.207-0.094-0.413-0.141-0.619c1.461,2.668,3.29,5.176,5.63,7.086c-1.341,0.167-2.755-0.176-4.015-0.577
			c-1.675-0.533-3.275-1.285-4.824-2.111c-1.375-0.733-2.719-1.519-3.981-2.435c-1.616-1.174-3.145-2.463-4.758-3.642
			c-1.584-1.158-3.261-2.234-5.117-2.901c-0.91-0.327-1.841-0.5-2.796-0.628c-0.894-0.12-1.802-0.131-2.688,0.052
			c-1.52,0.314-2.757,1.246-3.811,2.345c-1.304,1.36-2.416,2.882-3.813,4.156c-2.97,2.706-6.698,4.523-10.6,5.439
			c1.764-2.458,3.36-5.037,4.711-7.746C126.513,181.553,128.183,176.197,128.736,170.676z"/>
		<path style="fill:#FFBF5A;" d="M153.928,168.548c1.491,3.584,2.606,7.337,3.623,11.072c0.17,0.625,0.321,1.255,0.484,1.882
			c-0.563-1.482-1.076-2.98-1.556-4.469C155.574,174.227,154.799,171.37,153.928,168.548z"/>
		<path style="opacity:0.69;fill:#93181C;" d="M133.979,300.069c2.016,0.32,4.11,0.507,6.167,0.381
			c-1.93,0.852-4.067,1.28-6.146,1.546c-1.898,0.243-3.847,0.379-5.759,0.238c-0.948-0.07-1.885-0.3-2.81-0.555
			c-1.485-0.409-2.941-0.94-4.337-1.592c-2.407-1.125-4.935-2.675-6.406-4.965c2.009,0.394,3.986,0.945,5.95,1.517
			C125.044,297.923,129.436,299.348,133.979,300.069z"/>
		<path style="opacity:0.69;fill:#93181C;" d="M79.148,190.684c1.598-0.082,3.183,0.09,4.762,0.313
			c1.736,0.637,3.439,1.342,5.026,2.299c-1.834,0.083-3.68,0.007-5.491,0.349c-0.2,0.038-0.26,0.281-0.179,0.439
			c0.376,0.73,0.881,1.379,1.476,1.943c2.655,2.516,6.475,3.457,9.843,4.601c2.405,0.817,4.766,1.747,7.186,2.525
			c2.64,0.849,5.305,1.618,7.981,2.342c5.175,1.4,10.373,2.797,15.675,3.624c5.044,0.787,10.15,1.155,15.254,1.135
			c10.35-0.041,20.688-1.651,30.612-4.573c2.441-0.719,4.859-1.518,7.247-2.395c2.046-0.752,4.075-1.497,5.945-2.631
			c1.754-1.063,3.423-2.26,5.193-3.298c1.72-1.009,3.64-1.998,5.674-2.084c1.497-0.063,2.612,0.458,3.535,1.621
			c0.774,0.975,1.293,2.149,1.648,3.346c0.03,0.548,0.045,1.093,0.04,1.628c-0.013,1.614-0.183,3.322-0.661,4.913
			c-0.261,0.177-0.57,0.301-0.949,0.342c-0.379,0.041-0.382,0.639,0,0.598c0.236-0.025,0.464-0.076,0.68-0.152
			c-0.18,0.47-0.383,0.928-0.631,1.363c-0.781-1.797-2.175-3.376-3.865-4.346c-0.204-0.117-0.438,0.034-0.45,0.258
			c-0.136,2.656-0.479,5.293-0.966,7.907c-0.96,5.162-2.385,10.233-3.614,15.335c-1.268,5.262-2.705,10.491-4.33,15.654
			c-2.769,8.794-6.13,17.526-10.368,25.726c-3.593,6.952-8.142,13.65-14.502,18.356c-6.509,4.816-14.469,6.853-22.458,7.341
			c-7.73,0.472-15.612-0.63-22.792-3.585c-7.156-2.945-13.479-7.835-17.761-14.317c-5.146-7.79-7.375-17.17-8.565-26.314
			c-1.232-9.465-1.42-19.028-2.554-28.503c-1.1-9.196-3.141-18.517-7.922-26.554c-0.714-1.2-1.805-2.465-2.053-3.873
			C76.602,190.814,78.341,190.725,79.148,190.684z"/>
		<g>
			<g>
				<g>
					<path style="fill:#770639;" d="M79.193,192.913c0.355-2.3,4.321-0.68,5.465-0.122c0.49,0.239,0.977,0.481,1.45,0.753
						c0.224,0.129,0.106,0.46-0.153,0.335c-1.017-0.492-2.099-0.853-3.195-1.123c-0.654-0.161-2.03-0.536-2.528,0.152
						c-0.26,0.359-0.121,0.885,0.004,1.266c0.254,0.776,0.682,1.502,1.144,2.172c0.945,1.37,2.19,2.513,3.545,3.468
						c2.885,2.035,6.246,3.326,9.595,4.376c3.954,1.24,7.982,2.246,12.052,3.022c9.465,1.804,19.159,2.583,28.771,3.107
						c9.454,0.515,18.987,0.083,28.339-1.417c4.804-0.771,9.513-1.9,14.189-3.238c2.276-0.652,4.614-1.195,6.805-2.104
						c2.032-0.843,3.911-1.975,5.868-2.967c0.459-0.233,0.919-0.463,1.381-0.689c-0.058-0.043-0.111-0.092-0.146-0.154
						c-0.006-0.011-0.007-0.024-0.012-0.035c-0.012-0.003-0.025-0.006-0.037-0.009c-0.106-0.016-0.212-0.033-0.318-0.052
						c-0.029-0.005-0.061-0.018-0.093-0.035c-0.396-0.071-0.934-0.1-1.288,0.128c-0.137,0.088-0.382-0.048-0.389-0.212
						c0.753-0.612,1.635-1.046,2.603-1.251c0.521-0.111,1.05-0.153,1.578-0.139c1.32,0.405,2.11,1.637,2.2,2.996
						c0.049,0.74-0.073,1.495-0.278,2.205c-0.097,0.335-0.563,0.208-0.733,0.013c-0.477-0.551-0.464-1.28-0.824-1.882
						c-0.012-0.02-0.026-0.039-0.039-0.059c-0.184-0.142-0.36-0.296-0.532-0.452c-0.053-0.048-0.105-0.096-0.158-0.144
						c-0.211,0.522-0.368,1.066-0.529,1.611c-0.311,1.052-0.586,2.113-0.903,3.163c-0.668,2.206-1.322,4.408-1.864,6.649
						c-1.1,4.55-2.04,9.137-3.037,13.71c-1.931,8.849-4.219,17.652-7.306,26.174c-1.494,4.124-3.201,8.167-5.176,12.085
						c-1.761,3.492-3.631,6.94-5.819,10.186c-2.159,3.204-4.639,6.201-7.536,8.768c-2.652,2.349-5.642,4.277-8.845,5.785
						c-6.314,2.971-13.355,4.425-20.327,4.335c-6.842-0.089-13.77-1.7-19.635-5.304c-5.785-3.555-10.276-8.867-13.341-14.882
						c-3.055-5.993-4.812-12.538-6.158-19.099c-0.684-3.332-1.258-6.685-1.828-10.038c-0.705-4.149-1.4-8.295-1.973-12.465
						c-0.639-4.649-1.204-9.308-1.873-13.953c-0.63-4.377-1.192-8.859-2.513-13.093c-0.596-1.91-1.351-3.785-2.395-5.496
						c-0.073-0.119-0.078-0.212-0.043-0.279c-0.549-0.54-1.061-1.118-1.52-1.74c-0.501-0.681-0.936-1.417-1.273-2.193
						C79.323,194.182,79.098,193.529,79.193,192.913z"/>
					<path style="fill:#992628;" d="M86.958,209.979c0.831,4.545,1.466,9.122,2.075,13.7c0.609,4.582,1.192,9.168,1.916,13.733
						c0.57,3.598,1.213,7.186,1.842,10.773c1.159,6.607,2.486,13.236,4.86,19.529c2.347,6.222,5.818,12.033,10.852,16.45
						c5.209,4.57,11.719,7.153,18.557,8.009c6.947,0.87,14.139,0.039,20.74-2.273c3.187-1.116,6.251-2.596,9.057-4.479
						c3.192-2.142,5.987-4.81,8.406-7.791c2.419-2.982,4.465-6.248,6.317-9.606c2.013-3.651,3.853-7.399,5.446-11.253
						c3.381-8.181,5.866-16.753,7.927-25.354c1.074-4.482,2.002-8.997,2.992-13.498c0.499-2.268,1.012-4.533,1.57-6.787
						c0.551-2.23,1.297-4.404,1.982-6.595c0.434-1.388,0.774-2.863,1.537-4.105c-0.022-0.018-0.045-0.036-0.067-0.055
						c-0.05-0.04-0.101-0.079-0.152-0.117c-0.045-0.033-0.09-0.064-0.137-0.095c-0.02-0.013-0.04-0.025-0.061-0.038
						c-0.015-0.007-0.031-0.014-0.046-0.021c-1.597,0.946-3.159,1.949-4.788,2.843c-2.068,1.135-4.205,1.937-6.46,2.61
						c-4.884,1.458-9.79,2.801-14.809,3.712c-9.685,1.758-19.607,2.362-29.438,1.976c-4.966-0.195-9.938-0.581-14.885-1.046
						c-5-0.47-9.99-1.082-14.929-1.999c-4.31-0.801-8.575-1.853-12.756-3.171c-3.451-1.088-6.92-2.405-9.9-4.498
						c-0.338-0.237-0.667-0.486-0.989-0.744C85.332,202.952,86.313,206.452,86.958,209.979z"/>
					<path style="fill:#4D0000;" d="M138.823,288.498c0.113-4.576-0.565-9.149-1.658-13.584c-1.108-4.493-2.648-8.87-4.372-13.16
						c-1.63-4.059-3.059-8.232-3.519-12.606c-0.444-4.227,0.077-8.571,2.182-12.319c1.012-1.802,2.345-3.471,3.916-4.817
						c0.995-0.852,2.103-1.57,3.241-2.214c2.795-1.582,5.838-2.737,8.938-3.559c3.266-0.866,6.666-1.371,10.05-1.229
						c2.996,0.126,6.095,0.791,8.571,2.565c1.161,0.832,2.133,1.911,2.841,3.151c0.529,0.926,0.86,1.958,0.844,3.031
						c-0.014,0.981-0.312,1.933-0.711,2.821c-0.835,1.86-2.039,3.539-2.683,5.488c-0.451,1.364-0.565,2.855-0.468,4.283
						c0.098,1.444,0.418,3.004,1.355,4.153c0.902,1.106,2.233,1.385,3.595,1.19c2.113-0.303,3.402-1.926,4.066-3.846
						c0.825-2.389,0.931-5.016,1.072-7.517c0.15-2.665,0.198-5.379,0.772-7.996c0.422-1.922,1.235-4.098,3.218-4.877
						c1.091-0.429,2.381-0.469,3.467-0.011c0.777,0.328,1.433,0.87,1.985,1.506c-0.188,0.823-0.376,1.647-0.573,2.468
						c-2.062,8.601-4.546,17.172-7.927,25.354c-1.593,3.854-3.433,7.602-5.446,11.253c-1.852,3.358-3.898,6.624-6.317,9.606
						c-2.418,2.981-5.214,5.649-8.406,7.791c-2.806,1.883-5.87,3.363-9.057,4.479c-2.987,1.046-6.096,1.786-9.247,2.205
						C138.702,290.91,138.794,289.706,138.823,288.498z"/>
					<path style="fill:#FFFFFF;" d="M183.239,219.743c-0.675,1.716-1.423,3.409-2.244,5.065c-1.803,1.07-3.888,1.665-5.973,1.841
						c0.602-1.342,0.487-3.1,0.075-4.437c-0.405-1.313-1.36-2.676-2.898-2.554c-1.491,0.118-2.578,1.214-3.262,2.464
						c-0.817,1.493-1.228,3.19-1.609,4.836c-0.052,0.225-0.101,0.454-0.149,0.684c-0.1,0.081-0.192,0.171-0.296,0.247
						c-2.312,1.695-5.261,2.293-8.045,2.68c-1.328,0.185-2.664,0.309-3.996,0.466c-1.955,0.231-3.908,0.462-5.871,0.625
						c-3.997,0.332-8.012,0.471-12.022,0.4c-3.399-0.06-6.783-0.317-10.169-0.6c-5.391-0.451-10.89-1.025-15.999-2.912
						c-2.479-0.916-4.871-2.179-6.847-3.954c-2.158-1.938-3.622-4.462-4.776-7.097c-1.671-3.815-2.669-7.906-3.266-12.05
						c3.737,1.121,7.532,2.045,11.367,2.758c4.939,0.918,9.93,1.529,14.929,2c4.947,0.465,9.919,0.851,14.885,1.046
						c9.831,0.386,19.753-0.218,29.438-1.976c5.018-0.911,9.925-2.254,14.809-3.712c2.025-0.604,3.952-1.327,5.822-2.287
						c-0.066,1.156-0.186,2.309-0.352,3.453C186.149,211.186,184.885,215.556,183.239,219.743z"/>
					<path style="opacity:0.5;fill:#BABCBE;" d="M183.638,216.605c-1.099-2.479-3.744-3.699-6.306-3.997
						c-2.772-0.322-5.588,0.21-8.298,0.75c-3.208,0.638-6.421,1.241-9.662,1.693c-7.582,1.058-15.256,1.445-22.908,1.266
						c-3.794-0.088-7.585-0.318-11.362-0.684c-3.534-0.343-7.045-0.801-10.518-1.547c-6.503-1.397-13.01-3.614-18.503-7.444
						c-0.065-0.398-0.13-0.795-0.187-1.194c3.737,1.121,7.532,2.045,11.367,2.758c4.939,0.918,9.93,1.529,14.929,2
						c4.947,0.465,9.919,0.851,14.885,1.046c9.831,0.386,19.753-0.218,29.438-1.976c5.018-0.911,9.925-2.254,14.809-3.712
						c2.025-0.604,3.952-1.327,5.822-2.287c-0.066,1.156-0.186,2.309-0.352,3.453c-0.539,3.732-1.517,7.401-2.786,10.954
						C183.914,217.317,183.794,216.957,183.638,216.605z"/>
					<path style="fill:#770639;" d="M190.874,195.407c1.274-0.749,2.545-1.26,3.983-1.603c1.249-0.298,2.603-0.559,3.752,0.191
						c0.977,0.638,1.53,1.788,1.887,2.86c0.42,1.261,0.669,2.603,0.818,3.921c0.196,1.732,0.248,3.657-0.37,5.314
						c-0.116,0.312-0.597,0.03-0.553-0.242c0.227-1.414,0.397-2.803,0.316-4.237c-0.074-1.306-0.284-2.611-0.607-3.878
						c-0.253-0.992-0.588-2.052-1.274-2.836c-0.901-1.029-2.19-0.946-3.424-0.723c-1.527,0.276-2.916,0.787-4.312,1.46
						C190.963,195.691,190.728,195.492,190.874,195.407z"/>
				</g>
				<g>
					<path style="fill:#919396;" d="M142.69,167.648c0.049-2.124,0.256-4.221,0.574-6.321c0.153-1.01,0.332-2.016,0.563-3.01
						c0.232-0.998,0.538-1.976,0.832-2.957c0.295-0.981,0.638-1.933,1.048-2.872c0.313-0.716,0.665-1.413,0.974-2.13
						c0.022-0.01,0.042-0.023,0.067-0.027c2.088-3.475,4.813-6.567,8.169-8.848c4.914-3.34,10.971-4.596,16.737-2.986
						c5.745,1.603,10.617,5.521,14.388,10.037c3.873,4.639,6.844,10.11,8.535,15.916c0.89,3.054,1.325,6.214,1.382,9.394
						c0.069,3.776-0.407,7.606-1.774,11.143c-1.312,3.392-3.452,6.342-6.331,8.574c-2.798,2.169-6.142,3.635-9.599,4.36
						c-6.676,1.399-13.775,0.014-19.69-3.291c-5.843-3.264-10.544-8.369-13.31-14.465c-1.539-3.391-2.284-7.038-2.583-10.729
						C142.671,168.839,142.676,168.244,142.69,167.648z"/>
					<path style="fill:#FFFFFF;" d="M143.548,168.081c0.098,2.058,0.306,4.115,0.714,6.136c1.368,6.781,5.333,12.907,10.736,17.188
						c5.15,4.08,11.58,6.399,18.168,6.324c6.813-0.077,13.889-3.092,17.906-8.744c2.148-3.022,3.294-6.62,3.81-10.265
						c0.498-3.511,0.422-7.149-0.144-10.647c-0.913-5.639-3.374-11.053-6.55-15.768c-3.276-4.862-7.6-9.308-12.935-11.878
						c-2.514-1.211-5.251-1.972-8.048-2.062c-2.913-0.093-5.8,0.541-8.456,1.728c-4.885,2.183-8.759,6.156-11.496,10.705
						c0,0.001,0,0.001,0,0.002c-0.403,0.922-0.732,1.886-1.109,2.82c-0.364,0.901-0.73,1.802-1.063,2.715
						c-0.642,1.763-1.152,3.577-1.411,5.438C143.381,163.857,143.449,165.986,143.548,168.081z"/>
					<path style="opacity:0.5;fill:#BABCBE;" d="M143.548,168.081c0.098,2.058,0.306,4.115,0.714,6.136
						c1.368,6.781,5.333,12.907,10.736,17.188c5.15,4.08,11.58,6.399,18.168,6.324c6.813-0.077,13.889-3.092,17.906-8.744
						c2.148-3.022,3.294-6.62,3.81-10.265c0.497-3.511,0.422-7.149-0.144-10.647c-0.913-5.639-3.374-11.053-6.55-15.768
						c-3.276-4.862-7.6-9.308-12.935-11.878c-2.514-1.211-5.251-1.972-8.048-2.062c-2.913-0.093-5.8,0.541-8.456,1.728
						c-4.885,2.183-8.759,6.156-11.496,10.705c0,0.001,0,0.001,0,0.002c-0.403,0.922-0.732,1.886-1.109,2.82
						c-0.364,0.901-0.73,1.802-1.063,2.715c-0.642,1.763-1.152,3.577-1.411,5.438C143.381,163.857,143.449,165.986,143.548,168.081z
						 M149.813,161.023c-0.024-1.414,0.076-2.858,0.409-4.241c0.451-2.551,1.357-5.01,2.815-7.181
						c1.376-2.049,3.154-3.887,5.405-4.953c3.062-1.45,6.584-1.887,9.94-1.9c1.675-0.007,3.323,0.102,4.953,0.511
						c1.527,0.383,3.001,0.978,4.365,1.764c1.176,0.679,2.25,1.501,3.241,2.416c0.063,0.002,0.127,0.019,0.187,0.068
						c4.18,3.469,7.241,8.3,9.337,13.264c2.208,5.229,3.491,11.088,2.709,16.766c-0.362,2.627-1.21,5.201-2.639,7.445
						c-1.413,2.22-3.354,4.042-5.605,5.396c-2.573,1.547-5.461,2.353-8.399,2.376c-1.648,0.134-3.309,0.094-4.951-0.081
						c-2.135-0.227-4.197-0.651-6.151-1.568c-4.131-1.938-7.362-5.438-9.922-9.137c-2.933-4.239-4.124-9.414-4.966-14.421
						C150.176,165.389,149.85,163.214,149.813,161.023z"/>
					<path style="fill:#919396;" d="M94.773,168.544c0.637-3.204,1.416-6.399,2.602-9.442c0.405-0.853,0.851-1.68,1.327-2.507
						c0.025-0.044,0.059-0.074,0.097-0.093c0.675-1.142,1.421-2.242,2.278-3.276c1.735-2.093,3.841-3.896,6.286-5.106
						c2.709-1.34,5.649-2.282,8.698-2.256c2.816,0.025,5.595,0.888,8.111,2.115c2.189,1.068,4.177,2.51,5.849,4.283
						c3.274,3.472,5.317,7.918,6.186,12.583c0.868,4.658,0.62,9.539-0.652,14.1c-1.243,4.46-3.508,8.682-6.862,11.91
						c-4.027,3.876-9.366,6.586-14.924,7.298c-2.644,0.339-5.511,0.28-7.997-0.775c-2.257-0.958-4.115-2.639-5.56-4.594
						c-1.562-2.113-2.601-4.551-3.457-7.021c-0.943-2.725-1.613-5.55-1.972-8.411c-0.35-2.793-0.387-5.633-0.085-8.434
						C94.725,168.794,94.748,168.669,94.773,168.544z"/>
					<path style="fill:#FFFFFF;" d="M98.885,189.254c1.002,2.156,2.376,4.206,4.194,5.757c1.96,1.671,4.289,2.478,6.84,2.642
						c5.597,0.36,11.11-1.758,15.574-5.037c3.777-2.775,6.605-6.475,8.365-10.816c1.726-4.258,2.456-8.923,2.171-13.507
						c-0.279-4.493-1.56-8.949-4.047-12.726c-1.341-2.037-2.988-3.871-4.959-5.316c-2.011-1.474-4.321-2.545-6.714-3.233
						c-2.894-0.832-5.894-0.731-8.767,0.129c-2.698,0.808-5.262,2.107-7.403,3.945c-1.897,1.63-3.462,3.624-4.744,5.767
						c0.016,0.068,0.01,0.138-0.028,0.204c-2.802,4.863-4.114,10.554-4.072,16.14C95.338,178.682,96.574,184.28,98.885,189.254z"/>
					<path style="opacity:0.5;fill:#BABCBE;" d="M95.296,173.202c0.042,5.48,1.278,11.078,3.59,16.053
						c1.002,2.156,2.376,4.206,4.194,5.757c1.96,1.671,4.289,2.478,6.84,2.642c5.597,0.36,11.11-1.758,15.574-5.037
						c3.777-2.775,6.605-6.475,8.365-10.816c1.726-4.258,2.456-8.923,2.171-13.507c-0.279-4.493-1.56-8.949-4.047-12.726
						c-1.341-2.037-2.988-3.871-4.959-5.316c-2.011-1.474-4.321-2.545-6.714-3.233c-2.894-0.832-5.894-0.731-8.767,0.129
						c-2.698,0.808-5.262,2.107-7.403,3.945c-1.897,1.63-3.462,3.624-4.744,5.767c0.016,0.068,0.01,0.138-0.028,0.204
						C96.566,161.925,95.254,167.616,95.296,173.202z M101.808,168.404c0.505-4.579,1.768-9.258,4.524-13.022
						c2.598-3.548,6.582-6.143,11.042-6.413c10.677-0.647,16.097,10.23,16.244,19.533c0.07,4.48-0.78,9.087-2.599,13.188
						c-0.905,2.041-2.1,3.985-3.668,5.586c-1.54,1.571-3.44,2.678-5.494,3.441c-3.783,1.404-8.055,1.427-11.773-0.195
						c-3.683-1.607-6.439-4.791-7.608-8.624c-0.643-2.108-0.786-4.363-0.88-6.554C101.496,173.03,101.554,170.707,101.808,168.404z"
						/>
					<path style="fill:#770639;" d="M139.932,145.961c0.03-0.388,0.63-0.18,0.624,0.132c-0.027,1.491,0.607,4.127,2.595,3.739
						c0.961-0.188,1.812-0.843,2.552-1.451c0.869-0.713,1.668-1.505,2.422-2.338c1.496-1.655,2.81-3.462,4.153-5.241
						c1.343-1.78,2.695-3.557,4.098-5.291c2.823-3.49,5.989-6.862,9.872-9.186c1.74-1.041,3.655-1.838,5.689-2.019
						c2.122-0.188,4.183,0.381,6.023,1.421c4.161,2.35,7.143,6.211,9.856,10.044c0.138,0.195-0.177,0.228-0.283,0.082
						c-1.289-1.783-2.709-3.463-4.241-5.042c-1.52-1.568-3.178-3.018-5.055-4.148c-1.872-1.127-3.956-1.747-6.15-1.507
						c-2.08,0.227-4.021,1.175-5.751,2.307c-3.846,2.516-6.949,5.93-9.785,9.508c-1.424,1.797-2.81,3.625-4.189,5.456
						c-1.356,1.801-2.727,3.603-4.324,5.201c-1.37,1.371-3.466,3.51-5.632,2.98C140.487,150.14,139.798,147.704,139.932,145.961z"/>
					<path style="fill:#770639;" d="M91.508,144.491c1.117-1.529,2.518-2.853,4.139-3.837c3.809-2.311,8.506-2.799,12.837-2.058
						c4.703,0.805,9.089,2.947,13.169,5.345c2.066,1.214,4.076,2.522,6.071,3.849c0.951,0.632,1.899,1.268,2.851,1.898
						c0.8,0.529,1.696,1.303,2.687,1.406c0.784,0.081,1.275-0.538,1.583-1.179c0.499-1.035,0.773-2.245,0.95-3.372
						c0.473-2.999,0.169-6.161-0.418-9.123c-0.038-0.19,0.3-0.11,0.335,0.033c0.65,2.684,1.272,5.392,1.137,8.175
						c-0.059,1.217-0.27,2.423-0.604,3.594c-0.215,0.751-0.501,1.563-1.054,2.136c-1.413,1.465-3.421,0.053-4.726-0.817
						c-1.948-1.297-3.877-2.623-5.838-3.9c-4.051-2.638-8.303-5.162-12.96-6.566c-4.451-1.342-9.291-1.533-13.636,0.307
						c-1.812,0.767-3.459,1.922-4.784,3.379c-1.349,1.484-2.357,3.235-3.178,5.056c-0.208,0.463-0.422,0.919-0.647,1.374
						c-0.124,0.251-0.574-0.067-0.521-0.293C89.358,147.963,90.338,146.093,91.508,144.491z"/>
					<path style="fill:#770639;" d="M193.982,153.627c2.167,4.002,4.389,8.009,5.435,12.478c0.479,2.048,0.696,4.142,0.745,6.243
						c0.047,2.032-0.037,4.102-0.384,6.107c-0.385,2.22-1.09,4.374-2.215,6.332c-0.11,0.191-0.457-0.065-0.367-0.257
						c0.84-1.797,1.342-3.755,1.663-5.707c0.33-2.012,0.496-4.04,0.477-6.08c-0.018-1.983-0.153-3.988-0.527-5.938
						c-0.411-2.143-1.106-4.239-1.913-6.262c-0.932-2.335-2.019-4.606-3.163-6.844C193.636,153.512,193.904,153.482,193.982,153.627
						z"/>
					<path style="fill:#770639;" d="M88.199,167.354c0.189-0.961,0.511-1.905,0.912-2.798c0.188-0.418,0.393-0.834,0.629-1.228
						c0.263-0.438,0.611-0.805,0.9-1.224c0.012-0.016,0.045,0.007,0.034,0.024c-0.472,0.726-0.806,1.655-1.093,2.471
						c-0.28,0.798-0.483,1.622-0.617,2.457c-0.281,1.746-0.294,3.479-0.189,5.241c0.224,3.771,0.796,7.52,2.052,11.093
						c0.653,1.857,1.48,3.646,2.165,5.491c0.101,0.271-0.325,0.246-0.417,0.061c-0.817-1.633-1.632-3.275-2.342-4.958
						c-0.733-1.738-1.239-3.533-1.593-5.384c-0.373-1.945-0.599-3.914-0.7-5.892C87.848,170.914,87.851,169.125,88.199,167.354z"/>
					<path style="fill:#770639;" d="M129.763,192.533c0.11-0.806,0.402-1.747,1.05-2.285c1.216-1.009,3.161-0.468,4.51-0.076
						c0.322,0.094,0.639,0.196,0.955,0.305c0.244-0.169,0.487-0.339,0.71-0.538c0.404-0.359,0.764-0.764,1.046-1.227
						c0.582-0.958,0.686-2.078,0.233-3.111c-0.093-0.213,0.249-0.181,0.328-0.048c0.646,1.08,0.628,2.295,0.088,3.416
						c-0.322,0.668-0.848,1.356-1.482,1.85c1.735,0.684,3.393,1.561,5.031,2.45c0.092,0.05,0.133,0.141,0.12,0.207
						c-1.458-0.456-2.815-1.176-4.235-1.734c-0.698-0.275-1.42-0.512-2.139-0.729c-0.456-0.138-0.936-0.26-1.417-0.281
						c-0.152-0.031-0.304-0.066-0.457-0.092c-0.677-0.115-1.448-0.198-2.107,0.048c-0.721,0.269-1.036,1.002-1.209,1.704
						c-0.208,0.842-0.18,1.723-0.059,2.576c0.24,1.695,0.875,3.324,1.588,4.871c0.424,0.921,0.893,1.824,1.439,2.678
						c0.554,0.867,1.235,1.624,1.875,2.425c0.11,0.137,0.022,0.324-0.164,0.234c-0.891-0.433-1.525-1.205-2.094-1.995
						c-0.597-0.828-1.104-1.719-1.566-2.628c-0.841-1.655-1.565-3.36-1.92-5.19C129.708,194.432,129.634,193.477,129.763,192.533z"
						/>
					<circle style="fill:#451800;" cx="177.99" cy="173.388" r="9.862"/>
					<circle style="fill:#FFFFFF;" cx="182.843" cy="171.204" r="2.974"/>
					
						<ellipse transform="matrix(0.9925 -0.1219 0.1219 0.9925 -20.3158 16.2604)" style="fill:#451800;" cx="122.744" cy="174.178" rx="9.862" ry="9.862"/>
					<path style="fill:#FFFFFF;" d="M124.622,171.993c0,1.643,1.332,2.974,2.974,2.974c1.643,0,2.974-1.332,2.974-2.974
						c0-1.643-1.332-2.974-2.974-2.974C125.954,169.019,124.622,170.351,124.622,171.993z"/>
				</g>
				<path style="fill:#FFFFFF;" d="M112.364,269.333c2.642-1.457,5.561-2.437,8.572-2.721c1.539-0.145,3.107-0.126,4.639,0.085
					c1.05,0.145,2.053,0.504,2.948,1.072c1.933,1.226,3.202,3.266,4.082,5.331c1.045,2.452,1.623,5.099,2.009,7.728
					c0.562,3.826,0.714,7.726,0.601,11.602c-2.723,0.162-5.457,0.084-8.155-0.254c-6.837-0.856-13.348-3.439-18.557-8.009
					c-2.174-1.908-4.055-4.076-5.682-6.424C105.432,274.35,108.621,271.398,112.364,269.333z"/>
				<path style="fill:#F4784E;" d="M113.303,287.575c0.797-2.611,1.966-5.145,3.534-7.385c3.021-4.314,7.452-7.15,11.987-9.658
					c4.869-2.693,10.041-4.829,15.417-6.272c5.418-1.453,11.007-2.186,16.616-2.217c4.34-0.024,8.765,0.442,12.857,1.915
					c-0.689,1.368-1.396,2.726-2.135,4.067c-1.852,3.358-3.898,6.624-6.317,9.606c-2.418,2.981-5.214,5.649-8.406,7.791
					c-2.806,1.883-5.87,3.363-9.057,4.479c-6.601,2.312-13.793,3.143-20.74,2.273c-4.874-0.61-9.579-2.103-13.768-4.563
					C113.296,287.6,113.299,287.587,113.303,287.575z"/>
			</g>
		</g>
		<path style="opacity:0.69;fill:#93181C;" d="M134.891,192.824c1.417-0.246,2.829,0.367,3.974,1.168
			c0.151,0.106,0.3,0.217,0.446,0.334c0.259,0.133,0.509,0.282,0.751,0.441c0.932,0.613,2.076,1.662,2.048,2.884
			c-0.013,0.59-0.307,1.188-0.83,1.495c-0.535,0.315-1.195,0.318-1.781,0.146c-1.282-0.378-2.382-1.282-3.26-2.266
			c-0.837-0.938-1.729-2.081-1.942-3.354C134.236,193.314,134.53,192.887,134.891,192.824z"/>
		<path style="opacity:0.69;fill:#93181C;" d="M145.354,198.746c0.835,0,1.616,1.484,0.508,1.484
			C145.028,200.23,144.247,198.746,145.354,198.746z"/>
		<path style="fill:#F4784E;" d="M148.613,273.075c-0.058,1.716,0.867,3.363,2.334,4.243c1.655,0.993,3.616,1.005,5.443,0.549
			c1.755-0.437,3.486-1.272,4.905-2.396c1.371-1.086,2.587-2.564,2.751-4.367c0.166-1.828-0.777-3.604-2.528-4.203
			c-0.451-0.317-0.949-0.565-1.45-0.717c-1.681-0.509-3.567-0.213-5.209,0.304C151.793,267.454,148.733,269.551,148.613,273.075z"/>
		<path style="fill:#F4784E;" d="M145.908,280.934c0.11-0.317,0.259-0.509,0.505-0.731c0.067-0.061,0.139-0.114,0.218-0.16
			c0.041-0.024,0.074-0.05,0.111-0.08c0.107-0.087,0.237-0.147,0.373-0.171c0.192-0.051,0.386-0.054,0.581-0.011
			c0.168,0.032,0.323,0.094,0.464,0.187c0.339,0.191,0.618,0.472,0.75,0.846c0.039,0.111,0.061,0.232,0.078,0.348
			c0.003,0.021,0.003,0.04,0.004,0.061c0.091,0.232,0.146,0.477,0.13,0.718c-0.018,0.277-0.067,0.485-0.208,0.73
			c-0.104,0.18-0.269,0.336-0.439,0.452c-0.118,0.081-0.253,0.139-0.383,0.197c-0.042,0.019-0.084,0.037-0.128,0.053
			c-0.346,0.128-0.764-0.008-1.047-0.219c-0.29-0.217-0.526-0.457-0.733-0.754c-0.179-0.258-0.269-0.54-0.323-0.844
			c-0.012-0.066-0.015-0.13-0.012-0.197C145.856,281.223,145.862,281.068,145.908,280.934z"/>
	</g>
</g>
</svg>
